<svg width="197" height="177" viewBox="0 0 197 177" fill="none" xmlns="http://www.w3.org/2000/svg">
<path d="M77.9562 39.5938C77.9562 39.5938 42.6914 101.189 41.1012 130.607C40.4187 143.665 55.345 143.467 55.345 143.467L55.5429 134.727C55.5429 134.727 85.8391 135.021 103.489 136.374C135.976 138.875 165.773 116.558 165.773 116.558C165.773 116.558 146.22 103.807 135.976 94.0623C125.731 84.3179 113.719 52.0373 113.719 52.0373L77.9562 39.5938Z" fill="#21A19A"/>
<path d="M66.4015 6.66414C66.1558 5.75531 64.2857 4.69614 64.2857 4.69614C64.2857 4.69614 65.6507 2.33864 65.0569 1.71681C64.4632 1.09497 59.01 0.0836403 58.3275 1.03347C57.7951 1.79197 56.3755 8.61164 55.7954 11.4885C53.1951 16.5383 47.1891 31.0318 47.1891 38.6783C47.1891 44.3158 58.2865 46.2428 58.2865 46.2428L63.2142 10.4976C64.3608 9.46581 66.5789 7.34747 66.4015 6.66414Z" fill="white"/>
<path d="M58.3275 46.5912H58.2729C57.8088 46.5092 46.8888 44.5412 46.8888 38.685C46.8888 30.6627 53.1883 15.9164 55.5088 11.3859C56.4028 6.97153 57.5563 1.58003 58.0886 0.848863C58.3002 0.541363 58.7711 0.37053 59.4946 0.315863C61.3441 0.199697 64.7839 0.876196 65.3368 1.48436C65.8896 2.09253 65.1525 3.7667 64.743 4.57303C65.3163 4.92836 66.5107 5.76203 66.7291 6.58203C66.7973 6.8417 66.9816 7.53186 63.5418 10.682L58.6346 46.311C58.6288 46.357 58.6137 46.4013 58.5902 46.4412C58.5668 46.4812 58.5354 46.5159 58.4981 46.5434C58.4461 46.5732 58.3874 46.5897 58.3275 46.5912ZM59.9928 0.98553C59.8244 0.98553 59.6606 0.98553 59.5014 0.98553C58.8189 1.03336 58.6619 1.19736 58.6483 1.21786C58.307 1.6962 57.3583 5.6527 56.1708 11.543C56.1775 11.5723 56.1775 11.6026 56.1708 11.6319C53.277 17.2625 47.6054 31.4485 47.6054 38.6645C47.6054 43.4069 56.2186 45.4432 58.075 45.8259L62.948 10.436C62.9576 10.3564 62.9965 10.2833 63.0572 10.231C65.5347 7.97603 66.1558 6.95786 66.1353 6.73236C65.9851 6.1652 64.859 5.3657 64.1833 4.96936C64.1059 4.92372 64.0495 4.84932 64.0265 4.76232C64.0035 4.67531 64.0157 4.58274 64.0605 4.5047C64.6952 3.38403 65.0842 2.15403 64.8727 1.92853C64.6611 1.70303 61.8219 0.98553 59.9587 0.98553H59.9928Z" fill="#231F20"/>
<path d="M107.386 128.243C107.556 129.015 121.09 172.413 121.09 172.413C121.09 172.413 140.071 176.513 141.203 173.671C142.077 171.477 131.287 168.799 131.287 168.799L120.851 132.138" fill="white"/>
<path d="M137.204 175.003C131.86 175.003 123.267 173.233 121.015 172.748C120.956 172.736 120.901 172.708 120.857 172.667C120.812 172.626 120.78 172.574 120.763 172.516C120.21 170.739 107.229 129.097 107.051 128.318C107.041 128.274 107.04 128.228 107.047 128.184C107.055 128.139 107.071 128.097 107.095 128.059C107.12 128.021 107.151 127.988 107.188 127.962C107.225 127.936 107.266 127.917 107.31 127.908C107.399 127.889 107.491 127.906 107.568 127.954C107.644 128.003 107.699 128.079 107.72 128.167C107.87 128.851 116.668 157.086 121.37 172.119C134.849 175.01 140.48 174.532 140.896 173.548C140.923 173.491 140.938 173.429 140.938 173.367C140.938 173.304 140.923 173.242 140.896 173.185C140.091 171.627 133.662 169.728 131.253 169.133C131.194 169.118 131.141 169.088 131.098 169.046C131.055 169.004 131.024 168.952 131.007 168.894L120.524 132.233C120.501 132.146 120.513 132.054 120.558 131.976C120.602 131.898 120.676 131.84 120.763 131.816C120.805 131.803 120.85 131.798 120.894 131.803C120.939 131.807 120.982 131.821 121.021 131.843C121.06 131.864 121.094 131.894 121.121 131.929C121.148 131.965 121.168 132.005 121.179 132.049L131.56 168.518C133.088 168.908 140.432 170.862 141.456 172.871C141.533 173.012 141.578 173.169 141.588 173.329C141.599 173.489 141.575 173.65 141.517 173.8C141.169 174.682 139.477 175.003 137.204 175.003Z" fill="#231F20"/>
<path d="M87.1085 124.238L86.5762 168.812C86.5762 168.812 69.3021 174.279 65.5074 172.741C61.7127 171.204 76.3318 165.819 76.3318 165.819L74.2843 127.122" fill="white"/>
<path d="M67.4525 173.35C66.7585 173.375 66.0654 173.278 65.405 173.063C64.7225 172.776 64.5587 172.379 64.5655 172.065C64.5723 171.751 65.1525 169.612 76.0042 165.587L73.9567 127.143C73.9539 127.098 73.9601 127.053 73.9747 127.01C73.9893 126.968 74.0122 126.928 74.042 126.895C74.0718 126.861 74.1079 126.834 74.1484 126.814C74.1888 126.794 74.2326 126.783 74.2775 126.78C74.3227 126.776 74.3684 126.78 74.4117 126.794C74.4551 126.808 74.495 126.831 74.529 126.861C74.563 126.891 74.5904 126.928 74.6094 126.97C74.6284 127.011 74.6385 127.056 74.6392 127.102L76.6867 165.806C76.6911 165.877 76.6723 165.949 76.6329 166.009C76.5936 166.07 76.5359 166.116 76.4683 166.14C71.8137 167.856 65.2548 170.828 65.2344 172.072C65.2344 172.236 65.4937 172.366 65.6507 172.427C69.0632 173.794 84.1806 169.202 86.2554 168.559L86.7809 124.238C86.7809 124.148 86.8169 124.061 86.8809 123.997C86.9449 123.933 87.0317 123.897 87.1222 123.897C87.2133 123.899 87.3001 123.936 87.3639 124.001C87.4277 124.066 87.4634 124.154 87.4634 124.245L86.9311 168.812C86.9323 168.885 86.9095 168.955 86.8663 169.014C86.823 169.072 86.7618 169.114 86.6922 169.133C86.0643 169.332 73.2947 173.35 67.4525 173.35Z" fill="#231F20"/>
<path d="M119.323 92.9212C119.323 92.9212 126.427 91.862 127.001 92.9212C127.574 93.9803 127.867 98.6885 127.867 98.6885L125.752 99.2693C125.752 99.2693 126.332 94.65 125.465 94.486C124.598 94.322 117.493 95.0668 117.493 95.0668L119.323 92.9212Z" fill="white"/>
<path d="M125.752 99.6111C125.669 99.6083 125.589 99.5769 125.526 99.5223C125.486 99.4846 125.454 99.4376 125.435 99.3852C125.416 99.3329 125.41 99.2768 125.417 99.2216C125.677 97.0965 125.656 95.026 125.363 94.78C124.803 94.657 120.258 95.0806 117.534 95.3744C117.466 95.3825 117.397 95.3699 117.337 95.3382C117.276 95.3064 117.226 95.2572 117.194 95.1967C117.161 95.1362 117.148 95.0674 117.155 94.9992C117.162 94.9309 117.19 94.8664 117.234 94.8141L119.063 92.6958C119.115 92.6339 119.188 92.5947 119.268 92.5864C121.479 92.2584 126.68 91.6161 127.301 92.7573C127.922 93.8984 128.175 98.183 128.209 98.6681C128.213 98.7464 128.19 98.8238 128.144 98.8872C128.098 98.9507 128.032 98.9964 127.956 99.0166L125.84 99.5975L125.752 99.6111ZM124.967 94.0898C125.158 94.0748 125.349 94.0748 125.54 94.0898C126.434 94.2879 126.386 96.6386 126.154 98.7706L127.519 98.4016C127.417 96.9461 127.13 93.8096 126.714 93.0511C126.427 92.6001 123.145 92.6753 119.507 93.2083L118.333 94.5749C119.991 94.4314 123.493 94.0898 124.967 94.0898Z" fill="#231F20"/>
<path d="M96.0015 101.381L140.289 96.4473L142.944 130.969L95.7217 134.154L96.0015 101.381Z" fill="white"/>
<path d="M95.7217 134.495C95.6787 134.495 95.636 134.487 95.5962 134.47C95.5564 134.454 95.5202 134.43 95.4897 134.399C95.4544 134.369 95.4263 134.331 95.4074 134.289C95.3886 134.246 95.3793 134.2 95.3805 134.153L95.6603 101.353C95.6613 101.271 95.6924 101.191 95.7476 101.13C95.8028 101.068 95.8785 101.029 95.9606 101.019L140.255 96.085C140.3 96.0801 140.345 96.0843 140.389 96.0972C140.432 96.1101 140.472 96.1315 140.507 96.1601C140.544 96.1891 140.573 96.2253 140.594 96.2665C140.616 96.3078 140.628 96.353 140.63 96.3993L143.285 130.921C143.289 130.967 143.284 131.013 143.27 131.056C143.256 131.1 143.233 131.14 143.203 131.174C143.142 131.243 143.056 131.285 142.964 131.29L95.7422 134.475L95.7217 134.495ZM96.3428 101.695L96.063 133.812L142.575 130.682L139.975 96.8503L96.3428 101.695Z" fill="#231F20"/>
<path d="M128.625 144.533L109.515 73.6443L75.3217 69.7288C75.3217 69.7288 71.5475 117.268 71.0015 145.633L128.625 144.533Z" fill="#231F20"/>
<path d="M71.0288 145.975C70.9841 145.976 70.9397 145.967 70.8986 145.949C70.8574 145.932 70.8204 145.906 70.79 145.873C70.7567 145.841 70.7303 145.803 70.7127 145.761C70.6951 145.718 70.6865 145.673 70.6876 145.627C71.2336 117.61 74.9737 70.1799 75.0078 69.7016C75.0159 69.6088 75.06 69.5229 75.1307 69.4624C75.2025 69.3998 75.2948 69.3657 75.39 69.3667L109.583 73.2822C109.652 73.2905 109.716 73.319 109.768 73.364C109.821 73.409 109.858 73.4686 109.877 73.5351L128.987 144.424C129 144.474 129.002 144.526 128.993 144.577C128.983 144.628 128.962 144.676 128.932 144.718C128.9 144.758 128.859 144.79 128.813 144.814C128.767 144.837 128.717 144.851 128.666 144.855L71.0425 145.955L71.0288 145.975ZM75.663 70.1252C75.3149 74.5259 71.9161 118.519 71.3769 145.292L128.209 144.205L109.276 73.9587L75.663 70.1252Z" fill="#231F20"/>
<path d="M72.5303 166.53L75.2603 170.274L87.6204 167.445L87.4975 171.279C87.4975 171.279 60.88 176.315 62.5249 172.919C64.1697 169.523 72.5303 166.53 72.5303 166.53Z" fill="#231F20"/>
<path d="M65.9783 174.422C64.0536 174.422 62.675 174.217 62.2723 173.684C62.1729 173.555 62.114 173.399 62.1031 173.236C62.0921 173.073 62.1296 172.91 62.2109 172.769C63.9035 169.284 72.0662 166.332 72.4142 166.209C72.4838 166.182 72.5602 166.179 72.6317 166.2C72.7031 166.221 72.7658 166.265 72.8101 166.325L75.3968 169.892L87.5384 167.083C87.5892 167.07 87.6424 167.07 87.6935 167.082C87.7445 167.094 87.792 167.118 87.8319 167.152C87.8722 167.185 87.9043 167.226 87.9256 167.274C87.9469 167.321 87.9569 167.373 87.9547 167.425L87.8319 171.258C87.8288 171.337 87.7995 171.412 87.7488 171.471C87.698 171.531 87.6287 171.571 87.5521 171.586C84.5491 172.181 72.3119 174.422 65.9783 174.422ZM72.4074 166.94C71.0424 167.452 64.2174 170.145 62.8524 173.09C62.7842 173.226 62.8183 173.267 62.8524 173.295C63.9717 174.757 78.2633 172.693 87.1972 171.012L87.2995 167.896L75.3763 170.63C75.3103 170.645 75.2413 170.64 75.1781 170.616C75.1149 170.591 75.0603 170.549 75.0214 170.493L72.4074 166.94Z" fill="#231F20"/>
<path d="M133.757 168.088L130.829 171.675L118.647 168.149L118.558 171.983C118.558 171.983 144.848 178.522 143.394 175.037C141.941 171.552 133.757 168.088 133.757 168.088Z" fill="#231F20"/>
<path d="M141.019 176.377C135.163 176.377 121.636 173.104 118.497 172.277C118.421 172.261 118.353 172.218 118.306 172.157C118.258 172.096 118.234 172.019 118.237 171.942L118.326 168.108C118.327 168.056 118.339 168.005 118.363 167.959C118.387 167.913 118.421 167.873 118.463 167.842C118.505 167.81 118.554 167.789 118.606 167.779C118.658 167.77 118.712 167.772 118.763 167.787L130.727 171.252L133.512 167.835C133.559 167.777 133.624 167.736 133.696 167.717C133.769 167.699 133.845 167.704 133.914 167.733C134.249 167.876 142.241 171.286 143.729 174.867C143.801 175.012 143.829 175.176 143.81 175.337C143.79 175.499 143.724 175.651 143.62 175.775C143.258 176.213 142.33 176.377 141.019 176.377ZM118.906 171.716C127.731 173.903 141.879 176.773 143.08 175.372C143.08 175.372 143.135 175.304 143.08 175.167C141.831 172.174 135.191 169.099 133.86 168.505L131.089 171.921C131.046 171.971 130.99 172.008 130.927 172.027C130.864 172.047 130.797 172.048 130.734 172.031L118.974 168.614L118.906 171.716Z" fill="#231F20"/>
<path d="M125.356 64.8431C121.943 70.5899 118.572 76.5076 114.6 81.9264C111.187 86.5526 113.555 91.9782 116.408 96.3926C116.934 97.1989 117.582 98.0462 118.524 98.2581C119.466 98.4699 121.677 98.1077 122.23 97.2057C122.619 96.5634 122.319 95.7366 122.134 95.0874L121.336 92.2652C122.077 92.026 122.841 91.8634 123.615 91.7801C122.68 91.0147 121.875 90.1674 120.995 89.3474C120.38 88.7666 119.234 87.7552 119.377 86.7917C119.52 85.8282 122.326 83.7236 123.049 83.1017C124.637 81.7351 126.177 80.3023 127.669 78.8036C130.959 75.5236 134.665 71.7857 136.378 67.3714C136.605 66.8074 136.772 66.2211 136.876 65.6221C138.125 58.0234 134.959 55.3311 134.959 55.3311L125.356 64.8431Z" fill="white"/>
<path d="M119.145 98.6339C118.916 98.6364 118.687 98.6158 118.463 98.5724C117.418 98.3401 116.729 97.4654 116.142 96.5224C113.583 92.5659 110.614 86.7303 114.34 81.6668C117.691 77.1089 120.653 72.1001 123.513 67.2689L125.076 64.6313C125.09 64.6056 125.109 64.5825 125.131 64.5629L134.733 55.0373C134.795 54.9791 134.877 54.9468 134.962 54.9468C135.047 54.9468 135.129 54.9791 135.191 55.0373C135.327 55.1534 138.494 57.9414 137.238 65.6426C137.125 66.264 136.951 66.8728 136.719 67.4603C134.952 72.0113 131.062 75.8926 127.929 79.0154C126.441 80.5051 124.878 81.9537 123.288 83.3272L122.79 83.7441C121.977 84.4274 119.821 86.1973 119.732 86.8054C119.623 87.5434 120.585 88.4386 121.158 88.9716L121.247 89.0604L122.025 89.8053C122.633 90.3998 123.206 90.9533 123.854 91.4794C123.905 91.5229 123.943 91.5801 123.962 91.6444C123.982 91.7086 123.982 91.7771 123.964 91.8416C123.945 91.9055 123.908 91.9623 123.857 92.0049C123.806 92.0475 123.743 92.0739 123.677 92.0808C123.035 92.1546 122.401 92.2802 121.78 92.4566L122.537 95.1284C122.691 95.477 122.771 95.8541 122.771 96.2354C122.771 96.6167 122.691 96.9938 122.537 97.3424C121.991 98.2376 120.299 98.6339 119.145 98.6339ZM125.629 65.0549C125.11 65.9159 124.596 66.7815 124.086 67.6516C121.213 72.5033 118.251 77.5189 114.873 82.1041C111.399 86.8259 114.252 92.4019 116.695 96.1808C117.087 96.977 117.768 97.5931 118.599 97.9028C119.452 98.1009 121.507 97.7114 121.937 97.0076C122.132 96.4613 122.105 95.8599 121.861 95.3334L121.008 92.3336C120.985 92.2484 120.995 92.1574 121.037 92.0797C121.079 92.002 121.149 91.9436 121.234 91.9168C121.752 91.7501 122.281 91.6199 122.817 91.5272C122.373 91.1241 121.943 90.7141 121.527 90.3109L120.763 89.5729L120.667 89.4909C119.985 88.8623 118.879 87.8168 119.036 86.7576C119.145 86.0264 120.401 84.8784 122.339 83.2658L122.824 82.8558C124.4 81.4891 125.95 80.0541 127.431 78.5781C130.516 75.5031 134.351 71.6764 136.057 67.2621C136.278 66.7204 136.44 66.1569 136.542 65.5811C137.545 59.4789 135.621 56.6157 134.952 55.8367L125.629 65.0549Z" fill="#231F20"/>
<path d="M84.7607 8.6593C86.0306 7.50088 87.4574 6.52777 88.9991 5.7688C90.4116 5.13748 91.977 4.93055 93.5048 5.17317C95.0327 5.41579 96.4572 6.0975 97.6054 7.13547C97.9951 6.79383 98.4587 6.54749 98.9597 6.41586C99.4607 6.28424 99.9853 6.27092 100.492 6.37697C103.98 6.95097 106.13 10.2651 107.413 13.2991C108.443 15.7386 108.553 18.3626 109.372 20.8158C110.054 22.9205 111.522 24.6835 112.6 26.6788C115.109 31.1245 116.59 36.0773 116.934 41.1723C117.295 48.2995 114.736 55.7273 109.338 60.3808C107.125 62.2723 104.496 63.6105 101.666 64.2853C98.8359 64.9601 95.8863 64.9522 93.0599 64.2621C86.5011 62.588 84.1397 59.0415 81.6144 52.8641C79.4372 47.5273 79.1096 41.7053 78.3452 36.061C77.2328 27.9225 78.277 14.5701 84.7607 8.6593Z" fill="white"/>
<path d="M97.3597 65.1779C95.8825 65.1795 94.4107 64.9982 92.978 64.638C86.426 62.9639 83.9076 59.4174 81.2936 53.0214C79.5259 48.689 78.9594 43.9877 78.4203 39.4435C78.2838 38.3365 78.1541 37.2364 78.0039 36.1362C76.9461 28.3462 77.8128 14.5292 84.5355 8.39971C85.8304 7.21992 87.2847 6.22847 88.8557 5.45454C90.2824 4.81468 91.8606 4.5913 93.4086 4.81012C94.9566 5.02894 96.4113 5.68105 97.6054 6.69138C98.0279 6.3904 98.5072 6.17881 99.0142 6.06955C99.5211 5.96028 100.045 5.95563 100.554 6.05588C103.523 6.54104 105.932 8.93954 107.727 13.1762C108.263 14.5701 108.656 16.0147 108.901 17.488C109.101 18.5897 109.367 19.6782 109.699 20.7475C110.207 22.0825 110.874 23.3513 111.685 24.5264C112.095 25.2097 112.525 25.852 112.9 26.5764C115.44 31.066 116.936 36.0716 117.275 41.2202C117.664 48.9214 114.784 56.2057 109.556 60.702C106.15 63.5957 101.827 65.1821 97.3597 65.1779ZM92.2204 5.41354C91.1594 5.41629 90.1115 5.64942 89.1492 6.09688C87.6369 6.84081 86.2375 7.79558 84.9928 8.93271C78.4681 14.8845 77.6422 28.4214 78.6796 36.0747C78.8298 37.1749 78.9663 38.2819 79.0959 39.3889C79.6351 43.892 80.1948 48.5455 81.9283 52.7959C84.5082 59.103 86.8423 62.3625 93.1486 63.9957C95.921 64.6705 98.8138 64.6767 101.589 64.0138C104.364 63.3509 106.943 62.0379 109.112 60.1827C114.176 55.823 116.975 48.7437 116.62 41.2544C116.285 36.2086 114.818 31.3034 112.327 26.9044C111.958 26.221 111.542 25.5377 111.133 24.9159C110.296 23.6928 109.608 22.3737 109.085 20.9867C108.748 19.8919 108.474 18.7785 108.266 17.652C108.029 16.2236 107.649 14.8226 107.133 13.47C105.434 9.46571 103.195 7.20388 100.472 6.75971C100.016 6.66243 99.5443 6.67358 99.0939 6.79227C98.6434 6.91096 98.2271 7.13386 97.8784 7.44304C97.813 7.50258 97.7278 7.53558 97.6395 7.53558C97.5511 7.53558 97.4659 7.50258 97.4006 7.44304C95.9971 6.12738 94.143 5.40097 92.2204 5.41354Z" fill="#231F20"/>
<path d="M132.529 52.6181L113.917 35.4733C111.249 32.9791 108.054 32.8356 106.341 32.7399C104.164 32.6033 61.8765 32.7399 61.8765 32.7399L60.1498 47.0421L75.0351 52.5088C75.0351 66.3258 74.7143 73.0088 74.7143 73.0088L110.443 76.1863C113.253 70.9091 115.433 65.3199 116.941 59.5334L122.858 64.0434L132.529 52.6181Z" fill="white"/>
<path d="M110.443 76.453H110.409L74.7075 73.2755C74.62 73.2652 74.5397 73.2221 74.4827 73.1549C74.4257 73.0877 74.3963 73.0014 74.4003 72.9133C74.4003 72.8518 74.7211 66.1825 74.7211 52.6935L60.0337 47.3156C59.9612 47.2896 59.8999 47.2394 59.8602 47.1734C59.8204 47.1075 59.8045 47.0298 59.8153 46.9535L61.542 32.6513C61.552 32.5691 61.5913 32.4933 61.6528 32.438C61.7143 32.3827 61.7938 32.3517 61.8765 32.3506C63.6032 32.3506 104.191 32.255 106.362 32.3506H106.485C108.225 32.4531 111.453 32.6581 114.149 35.1796L132.754 52.3245C132.819 52.3835 132.859 52.4655 132.866 52.5533C132.872 52.6412 132.844 52.7281 132.788 52.796L123.117 64.1393C123.06 64.2048 122.981 64.2461 122.895 64.255C122.808 64.2639 122.722 64.2396 122.653 64.1871L117.145 59.9915C115.626 65.6299 113.476 71.0786 110.737 76.2343C110.715 76.2958 110.676 76.3495 110.623 76.3885C110.571 76.4274 110.508 76.4499 110.443 76.453ZM75.0692 72.6195L110.245 75.756C112.987 70.5512 115.124 65.0485 116.613 59.356C116.625 59.3008 116.651 59.2496 116.689 59.2071C116.726 59.1647 116.773 59.1325 116.826 59.1134C116.88 59.0943 116.937 59.0889 116.992 59.0979C117.048 59.1069 117.101 59.1298 117.145 59.1646L122.81 63.4765L132.037 52.6525L113.685 35.7263C111.167 33.3688 108.225 33.1843 106.444 33.075H106.321C104.273 32.952 65.9919 33.034 62.1836 33.075L60.5251 46.8031L75.1511 52.1741C75.2165 52.1988 75.273 52.2427 75.3131 52.3C75.3533 52.3572 75.3753 52.4253 75.3763 52.4953C75.39 64.4468 75.1306 71.1161 75.0692 72.6195Z" fill="#231F20"/>
<path d="M95.6397 59.2944C95.5923 59.2952 95.5453 59.2858 95.5017 59.2669C95.4582 59.2481 95.4191 59.2202 95.3872 59.1851C95.3552 59.1533 95.3298 59.1155 95.3125 59.0739C95.2952 59.0322 95.2863 58.9876 95.2863 58.9425C95.2863 58.8974 95.2952 58.8527 95.3125 58.8111C95.3298 58.7695 95.3552 58.7317 95.3872 58.6999C97.9671 56.2809 101.905 52.2834 102.144 51.1832C102.383 50.0831 100.588 48.7437 99.8712 48.3337C99.8242 48.3055 99.7843 48.2668 99.7546 48.2206C99.725 48.1743 99.7065 48.1218 99.7006 48.0672C99.6974 48.0121 99.7067 47.957 99.728 47.9061C99.7493 47.8551 99.782 47.8098 99.8235 47.7734C100.983 46.8355 102.089 45.8316 103.134 44.7667C103.372 44.3157 102.663 41.1656 101.857 38.5142C101.844 38.4707 101.839 38.4249 101.843 38.3796C101.848 38.3342 101.861 38.2901 101.883 38.25C101.904 38.2099 101.934 38.1745 101.969 38.146C102.005 38.1174 102.046 38.0962 102.089 38.0837C102.132 38.0712 102.177 38.0672 102.222 38.0721C102.267 38.077 102.31 38.0906 102.349 38.1122C102.388 38.1337 102.423 38.1628 102.451 38.1978C102.479 38.2328 102.5 38.273 102.513 38.3161C103.059 40.1201 104.26 44.4046 103.68 45.1494C102.724 46.1456 101.707 47.0813 100.636 47.9511C101.448 48.4977 103.147 49.8507 102.833 51.2857C102.465 52.9667 96.5475 58.5701 95.8649 59.1987C95.8039 59.2569 95.7239 59.2909 95.6397 59.2944Z" fill="#231F20"/>
<path d="M87.4703 59.2944C87.4089 59.2946 87.3486 59.2782 87.2957 59.2469C87.2429 59.2156 87.1994 59.1707 87.17 59.1167C87.0266 58.8502 83.5732 52.5089 83.0749 50.1651C82.6245 48.1766 84.7402 46.8304 85.8049 46.2837C84.9024 45.7322 84.0444 45.1108 83.2387 44.4251C82.447 43.6324 84.6993 40.9537 86.7195 38.8422C86.7494 38.806 86.7864 38.7763 86.8283 38.755C86.8701 38.7337 86.9159 38.7213 86.9628 38.7186C87.0097 38.7159 87.0566 38.7228 87.1006 38.7391C87.1447 38.7553 87.1849 38.7805 87.2188 38.813C87.2527 38.8455 87.2796 38.8847 87.2976 38.9281C87.3157 38.9715 87.3247 39.0181 87.3239 39.0651C87.3232 39.1121 87.3128 39.1584 87.2933 39.2012C87.2739 39.244 87.2458 39.2823 87.2109 39.3137C85.218 41.3637 83.6278 43.5299 83.737 43.9672C84.6773 44.7163 85.6669 45.4012 86.699 46.0172C86.7528 46.0506 86.7962 46.0983 86.8245 46.155C86.8527 46.2117 86.8647 46.2751 86.859 46.3382C86.8534 46.4013 86.8303 46.4615 86.7924 46.5122C86.7545 46.563 86.7033 46.6021 86.6444 46.6254C86.6103 46.6254 83.2729 47.9921 83.7302 49.9942C84.242 52.2492 87.7569 58.6999 87.791 58.7682C87.8195 58.8203 87.8339 58.879 87.8329 58.9383C87.8318 58.9977 87.8153 59.0558 87.785 59.1069C87.7547 59.1579 87.7116 59.2002 87.66 59.2294C87.6084 59.2587 87.55 59.2741 87.4907 59.2739L87.4703 59.2944Z" fill="#231F20"/>
<path d="M88.5963 38.6578L89.8589 61.611L100.513 38.2341L88.5963 38.6578Z" fill="#231F20"/>
<path d="M89.859 61.9526H89.7908C89.7165 61.9387 89.6491 61.9002 89.5995 61.8431C89.5499 61.786 89.5211 61.7138 89.5178 61.6382L88.262 38.6851C88.2587 38.6401 88.2649 38.595 88.2802 38.5526C88.2955 38.5102 88.3195 38.4715 88.3507 38.4391C88.4119 38.3703 88.4977 38.3285 88.5896 38.3229L100.499 37.8992C100.557 37.8982 100.615 37.9121 100.666 37.9396C100.718 37.9671 100.761 38.0073 100.793 38.0564C100.821 38.1063 100.837 38.1628 100.837 38.2204C100.837 38.278 100.821 38.3345 100.793 38.3844L90.1388 61.7612C90.1134 61.8152 90.0741 61.8614 90.0249 61.895C89.9757 61.9286 89.9184 61.9485 89.859 61.9526ZM88.9581 38.9857L90.1184 60.2101L99.96 38.6167L88.9581 38.9857Z" fill="#231F20"/>
<path d="M75.5537 32.2412C75.5537 32.2412 83.2387 46.3383 93.4147 46.8508C103.591 47.3633 116.968 37.6258 116.968 37.6258C116.968 37.6258 115.364 33.0475 107.017 31.8243C107.017 31.8243 97.6121 44.056 92.9575 42.2657C88.3028 40.4753 85.3954 31.4485 85.3954 31.4485L75.5537 32.2412Z" fill="#21A19A"/>
<path d="M89.4563 31.4486L88.5963 38.6577C88.5963 38.6577 89.8112 42.8329 94.6706 42.1974C99.53 41.5619 100.513 38.2341 100.513 38.2341L102.089 22.9684C102.089 22.9684 100.124 21.9502 98.5199 13.6956C98.5199 13.6956 94.8889 17.1122 87.9479 15.4722C87.9479 15.4722 85.7844 22.4559 85.8527 26.1869C85.9141 29.8086 89.4017 31.3871 89.4563 31.4486Z" fill="white"/>
<path d="M93.6946 42.6075C92.4995 42.6212 91.3309 42.2556 90.3561 41.5633C89.3814 40.8709 88.6506 39.8873 88.2687 38.7535C88.2618 38.7082 88.2618 38.6621 88.2687 38.6168L89.1013 31.6331C87.8865 30.9498 85.5728 29.221 85.5182 26.1665C85.45 22.4218 87.5657 15.6295 87.6271 15.3425C87.6525 15.2603 87.7085 15.191 87.7834 15.1491C87.8584 15.1071 87.9466 15.0956 88.0298 15.117C94.691 16.7023 98.2673 13.4496 98.2673 13.4155C98.3132 13.3751 98.3686 13.347 98.4283 13.3339C98.488 13.3208 98.55 13.323 98.6086 13.3403C98.6661 13.3591 98.7174 13.3932 98.757 13.439C98.7967 13.4847 98.8232 13.5403 98.8338 13.6C100.363 21.4583 102.246 22.6268 102.246 22.6405C102.304 22.6741 102.35 22.7235 102.381 22.7829C102.411 22.8422 102.423 22.909 102.417 22.9753L100.847 38.2751C100.793 38.4801 99.7347 41.8763 94.7047 42.5391C94.3695 42.5805 94.0323 42.6033 93.6946 42.6075ZM88.9171 38.6236C89.0945 39.143 90.364 42.4161 94.6023 41.8558C99.1614 41.2613 100.117 38.2683 100.158 38.1385L101.7 23.1051C101.134 22.6336 99.5982 20.8091 98.2878 14.2901C97.1139 15.1443 93.7082 17.0713 88.1731 15.855C87.7636 17.2216 86.1257 22.9616 86.1871 26.1596C86.2349 28.893 88.3096 30.4168 89.5381 31.0796C89.5953 31.1085 89.6482 31.1453 89.6951 31.189C89.7319 31.2249 89.7597 31.269 89.7763 31.3176C89.7929 31.3663 89.7978 31.4182 89.7907 31.4691L88.9171 38.6236Z" fill="#231F20"/>
<path d="M100.247 23.2281C100.473 22.7074 100.815 22.2454 101.247 21.8771C101.678 21.5088 102.188 21.244 102.738 21.1029C103.092 20.971 103.471 20.9173 103.848 20.9456C104.225 20.9739 104.591 21.0835 104.922 21.2669C105.325 21.5677 105.63 21.9813 105.799 22.4556C105.968 22.9299 105.993 23.4436 105.87 23.9319C105.725 24.6757 105.384 25.3668 104.88 25.933C104.377 26.4992 103.732 26.9196 103.011 27.1505C102.038 27.415 100.999 27.2823 100.124 26.7814" fill="white"/>
<path d="M102.007 27.6286C101.289 27.6248 100.583 27.4341 99.96 27.0751C99.9165 27.0554 99.8776 27.0268 99.8458 26.9911C99.814 26.9554 99.7901 26.9135 99.7755 26.8679C99.761 26.8224 99.7561 26.7743 99.7613 26.7268C99.7664 26.6793 99.7815 26.6334 99.8055 26.592C99.8295 26.5507 99.8619 26.5149 99.9006 26.4869C99.9393 26.4589 99.9834 26.4393 100.03 26.4294C100.077 26.4196 100.125 26.4196 100.172 26.4296C100.219 26.4396 100.263 26.4593 100.301 26.4874C101.098 26.936 102.038 27.0561 102.922 26.8223C103.584 26.6108 104.177 26.2243 104.639 25.7036C105.1 25.1828 105.412 24.5471 105.543 23.8634C105.655 23.4389 105.639 22.9904 105.495 22.5753C105.352 22.1601 105.088 21.7973 104.737 21.5333C104.449 21.3755 104.13 21.2827 103.802 21.2615C103.475 21.2402 103.146 21.291 102.84 21.4103C102.342 21.5372 101.879 21.7751 101.485 22.1065C101.091 22.4378 100.778 22.8539 100.567 23.3236C100.537 23.4088 100.473 23.4782 100.391 23.5166C100.309 23.5551 100.216 23.5594 100.131 23.5286C100.046 23.4949 99.9778 23.4301 99.9397 23.3474C99.9016 23.2648 99.8967 23.1706 99.9259 23.0844C100.17 22.5119 100.544 22.004 101.018 21.6008C101.491 21.1976 102.052 20.9101 102.656 20.7611C103.057 20.6097 103.486 20.5484 103.912 20.5815C104.339 20.6145 104.754 20.7412 105.127 20.9524C105.592 21.2888 105.945 21.7569 106.143 22.2964C106.34 22.8359 106.371 23.4222 106.232 23.9796C106.074 24.7851 105.702 25.5331 105.156 26.1451C104.61 26.7572 103.909 27.2106 103.127 27.4578C102.764 27.5691 102.387 27.6266 102.007 27.6286Z" fill="#231F20"/>
<path d="M93.4148 20.6587C93.4148 20.6587 90.4186 23.9934 90.91 24.7177C91.4014 25.442 93.1077 25.2575 93.1077 25.2575" fill="white"/>
<path d="M92.6231 25.6333C92.0088 25.6333 91.0465 25.5308 90.6302 24.95C90.0705 24.13 91.9952 21.7862 93.1623 20.4673C93.1914 20.431 93.2276 20.4011 93.2687 20.3793C93.3098 20.3575 93.355 20.3444 93.4013 20.3407C93.4477 20.337 93.4943 20.3428 93.5384 20.3578C93.5824 20.3729 93.6229 20.3967 93.6574 20.428C93.6919 20.4592 93.7196 20.4972 93.7389 20.5396C93.7582 20.582 93.7686 20.6279 93.7695 20.6744C93.7704 20.721 93.7619 20.7673 93.7443 20.8104C93.7267 20.8535 93.7005 20.8926 93.6673 20.9252C92.2477 22.5105 91.0943 24.2188 91.2035 24.581C91.4697 24.9705 92.4934 25.0183 93.0735 24.9568C93.1631 24.9472 93.2528 24.9734 93.3231 25.0298C93.3934 25.0861 93.4386 25.1679 93.4489 25.2575C93.4585 25.3471 93.4323 25.4369 93.3761 25.5073C93.3198 25.5777 93.2381 25.623 93.1486 25.6333C92.9736 25.6428 92.7981 25.6428 92.6231 25.6333Z" fill="#231F20"/>
<path d="M97.0161 21.1155C97.1023 20.6458 96.9026 20.2155 96.5701 20.1544C96.2377 20.0932 95.8983 20.4244 95.8121 20.8941C95.726 21.3639 95.9256 21.7942 96.2581 21.8553C96.5906 21.9165 96.9299 21.5853 97.0161 21.1155Z" fill="#231F20"/>
<path d="M91.997 20.0782C92.087 19.6074 91.8898 19.1741 91.5566 19.1103C91.2234 19.0464 90.8804 19.3763 90.7904 19.8471C90.7005 20.3178 90.8977 20.7512 91.2309 20.815C91.5641 20.8788 91.9071 20.5489 91.997 20.0782Z" fill="#231F20"/>
<path d="M93.1828 29.0499C90.8486 29.0499 88.7124 27.3006 88.61 27.2118C88.57 27.1851 88.536 27.1503 88.5104 27.1096C88.4847 27.0689 88.4679 27.0233 88.4611 26.9756C88.4543 26.928 88.4576 26.8794 88.4708 26.8332C88.4841 26.7869 88.5069 26.7439 88.5379 26.7071C88.5688 26.6703 88.6072 26.6405 88.6505 26.6195C88.6938 26.5986 88.741 26.5871 88.7891 26.5857C88.8371 26.5843 88.8849 26.5931 88.9293 26.6115C88.9738 26.6299 89.0138 26.6575 89.0468 26.6924C89.0468 26.6924 91.6267 28.8039 93.9745 28.2846C95.1415 28.0249 96.0834 27.1503 96.7727 25.6879C96.7918 25.6469 96.8187 25.6101 96.8521 25.5796C96.8855 25.5491 96.9246 25.5255 96.9671 25.5102C97.0097 25.495 97.0548 25.4883 97.0999 25.4907C97.1451 25.493 97.1893 25.5043 97.23 25.5239C97.2707 25.5423 97.3074 25.5687 97.3378 25.6014C97.3682 25.6342 97.3917 25.6728 97.407 25.7148C97.4222 25.7569 97.4289 25.8015 97.4267 25.8462C97.4244 25.8909 97.4132 25.9347 97.3938 25.9749C96.6021 27.6423 95.5033 28.6468 94.1178 28.9543C93.8105 29.0199 93.497 29.052 93.1828 29.0499Z" fill="#231F20"/>
<path d="M89.4563 31.4485C89.4563 31.4485 93.8175 33.0202 96.6431 31.8243C96.6431 31.8243 92.9985 37.5233 88.8694 36.389L89.4563 31.4485Z" fill="#231F20"/>
<path d="M89.9886 36.8811C89.5808 36.8819 89.1747 36.829 88.7806 36.724C88.7007 36.7017 88.6313 36.6516 88.585 36.5827C88.5387 36.5138 88.5185 36.4306 88.5281 36.3481L89.1218 31.4076C89.1277 31.3565 89.1449 31.3073 89.172 31.2636C89.1991 31.2199 89.2356 31.1827 89.2788 31.1548C89.3247 31.1329 89.3748 31.1216 89.4256 31.1216C89.4763 31.1216 89.5265 31.1329 89.5723 31.1548C89.6201 31.1548 93.8379 32.6718 96.5065 31.5374C96.5737 31.508 96.6486 31.501 96.7201 31.5176C96.7916 31.5341 96.8559 31.5733 96.9034 31.6293C96.9509 31.6853 96.9791 31.7551 96.9838 31.8284C96.9885 31.9017 96.9696 31.9746 96.9297 32.0363C96.7863 32.2276 93.7628 36.8811 89.9886 36.8811ZM89.2447 36.1295C92.0429 36.6625 94.6365 33.8881 95.7626 32.4531C93.4762 32.9383 90.7667 32.2208 89.7497 31.9064L89.2447 36.1295Z" fill="#231F20"/>
<path d="M121.8 63.0595C121.464 63.3901 121.26 63.8324 121.227 64.3031C121.28 64.6487 121.424 64.9739 121.643 65.2461L122.523 66.5308C122.699 66.8261 122.931 67.0838 123.206 67.2893C124.086 67.8428 125.206 67.1526 125.991 66.4761C129.548 63.4238 132.726 59.955 135.457 56.1441C135.709 55.8405 135.883 55.479 135.962 55.0918C136.044 54.3675 135.47 53.7251 134.938 53.24C134.406 52.7548 133.703 51.6888 133.136 51.518C132.386 51.2856 132.017 51.9348 131.457 52.4746C130.306 53.5953 129.169 54.7342 128.045 55.8913C125.895 58.201 123.847 60.5995 121.8 63.0595Z" fill="white"/>
<path d="M123.943 67.8291C123.629 67.8325 123.321 67.7446 123.056 67.5763C122.734 67.3519 122.464 67.0605 122.264 66.7221L121.384 65.4375C121.127 65.1163 120.962 64.7313 120.906 64.3236C120.926 63.7669 121.158 63.239 121.554 62.8476C123.711 60.2031 125.772 57.8525 127.854 55.6658C128.939 54.5246 130.079 53.3698 131.266 52.2491C131.369 52.1535 131.464 52.0441 131.56 51.9485C131.99 51.4838 132.474 50.9645 133.286 51.2105C133.873 51.515 134.38 51.9526 134.767 52.4883C134.91 52.6631 135.063 52.8296 135.225 52.9871C135.866 53.6021 136.446 54.2855 136.351 55.1328C136.266 55.5782 136.068 55.9945 135.778 56.3423C133.038 60.1796 129.843 63.6697 126.264 66.7358C125.646 67.3676 124.823 67.7558 123.943 67.8291ZM122.087 63.2781C121.807 63.5436 121.631 63.8994 121.588 64.2826C121.64 64.5671 121.765 64.8332 121.95 65.0548L122.824 66.3395C122.975 66.6039 123.177 66.8361 123.417 67.0228C124.1 67.4601 125.103 66.8383 125.799 66.237C129.335 63.2115 132.493 59.7699 135.204 55.987C135.424 55.7298 135.576 55.4223 135.648 55.0918C135.709 54.5451 135.245 54.019 134.733 53.527C134.558 53.3532 134.392 53.1708 134.235 52.9803C133.887 52.584 133.368 51.9758 133.061 51.887C132.754 51.7981 132.495 51.9485 132.037 52.4336L131.724 52.7616C130.563 53.8891 129.423 55.044 128.345 56.1783C126.277 58.3171 124.23 60.6473 122.087 63.2781Z" fill="#231F20"/>
<path d="M57.5426 46.2016C57.4741 46.397 57.4482 46.6048 57.4667 46.8111C57.4853 47.0173 57.5477 47.2172 57.6499 47.3972C57.7521 47.5772 57.8916 47.7332 58.0592 47.8547C58.2267 47.9761 58.4182 48.0602 58.6209 48.1013L60.061 48.6821C60.3729 48.8323 60.7118 48.9183 61.0575 48.935C62.0949 48.935 62.6477 47.7118 62.9275 46.7073C64.1959 42.1934 64.9154 37.5427 65.0706 32.8561C65.1156 32.4641 65.0616 32.067 64.9136 31.7013C64.5792 31.018 63.7533 30.8471 63.0299 30.7241C62.4361 30.6216 61.1462 30.1228 60.5797 30.2936C59.829 30.5191 59.8972 31.264 59.7129 32.0225C59.3762 33.5941 59.0691 35.1726 58.7916 36.758C58.2524 39.8876 57.8497 43.0378 57.5426 46.2016Z" fill="white"/>
<path d="M61.0575 49.2768C60.682 49.2541 60.3139 49.1614 59.9723 49.0035L58.5323 48.4226C58.1358 48.2952 57.7833 48.0584 57.5153 47.7393C57.2197 47.2649 57.1194 46.6941 57.2355 46.1471C57.5631 42.7305 57.9726 39.6486 58.4913 36.6761C58.7643 35.1113 59.0714 33.5191 59.4127 31.9338C59.4468 31.7903 59.4673 31.6536 59.4878 31.517C59.5901 30.8951 59.7062 30.1913 60.5183 29.9453C61.1804 29.8749 61.8496 29.9639 62.4703 30.205C62.7228 30.2733 62.9549 30.3348 63.1528 30.369C64.0264 30.5193 64.8863 30.7653 65.2754 31.5238C65.4525 31.9417 65.5206 32.3979 65.4733 32.8495C65.2991 37.5777 64.5543 42.2676 63.2552 46.8168C62.6955 48.819 61.7537 49.27 61.0712 49.2905L61.0575 49.2768ZM57.9112 46.2291C57.8323 46.6082 57.8827 47.0028 58.0545 47.3498C58.2599 47.5514 58.5102 47.7013 58.7848 47.7871L60.2249 48.368C60.4916 48.5053 60.7851 48.5823 61.0848 48.5935C61.9106 48.5935 62.3816 47.5001 62.6341 46.6186C63.8908 42.1306 64.6057 37.5079 64.7635 32.8495C64.8047 32.5141 64.7625 32.1737 64.6406 31.8586C64.3881 31.3666 63.7056 31.1753 63.0095 31.0591C62.8184 31.0591 62.5658 30.9566 62.286 30.8815C61.7804 30.7005 61.2463 30.6126 60.7094 30.6218C60.3477 30.7311 60.2726 30.9908 60.1634 31.6468C60.1634 31.7903 60.1157 31.9475 60.0815 32.0978C59.7403 33.6695 59.399 35.2616 59.167 36.8128C58.6142 39.7716 58.2047 42.8535 57.8771 46.2291H57.9112Z" fill="#231F20"/>
<path d="M75.0282 54.8868C74.9383 54.8815 74.854 54.8416 74.7929 54.7753C74.7318 54.709 74.6987 54.6216 74.7006 54.5315L75.2125 41.35C75.2209 41.2611 75.2618 41.1785 75.3273 41.118C75.3928 41.0575 75.4783 41.0233 75.5674 41.022C75.6122 41.0237 75.6563 41.0343 75.697 41.0531C75.7378 41.072 75.7744 41.0986 75.8048 41.1316C75.8352 41.1646 75.8589 41.2033 75.8743 41.2455C75.8898 41.2876 75.8969 41.3324 75.895 41.3773L75.39 54.5588C75.3882 54.6043 75.3774 54.649 75.3582 54.6902C75.339 54.7315 75.3117 54.7685 75.278 54.799C75.2443 54.8296 75.2049 54.8531 75.162 54.8682C75.1191 54.8832 75.0736 54.8896 75.0282 54.8868Z" fill="#231F20"/>
<path d="M116.941 59.8C116.864 59.7981 116.79 59.7717 116.729 59.7248L113.528 57.217C113.489 57.1908 113.457 57.157 113.432 57.1177C113.407 57.0783 113.39 57.0343 113.383 56.9882C113.375 56.9421 113.377 56.8951 113.389 56.8499C113.4 56.8047 113.421 56.7623 113.449 56.7254C113.478 56.6885 113.514 56.6578 113.554 56.6352C113.595 56.6126 113.64 56.5987 113.686 56.5941C113.733 56.5896 113.78 56.5947 113.824 56.6089C113.868 56.6232 113.909 56.6464 113.944 56.6772L117.152 59.185C117.223 59.2404 117.27 59.3218 117.282 59.4115C117.293 59.5011 117.269 59.5917 117.214 59.6633C117.181 59.7054 117.14 59.7396 117.093 59.7632C117.046 59.7869 116.993 59.7995 116.941 59.8Z" fill="#231F20"/>
<path d="M60.6344 8.80292C60.594 8.81251 60.5519 8.81251 60.5115 8.80292C60.4701 8.78706 60.4322 8.76311 60.4001 8.73245C60.3679 8.70179 60.3423 8.66504 60.3245 8.62433C60.3067 8.58363 60.2972 8.53979 60.2965 8.49537C60.2958 8.45094 60.3039 8.40683 60.3204 8.36558C60.54 7.78698 60.9756 7.3165 61.5353 7.05358C60.8711 6.83701 60.2802 6.43949 59.829 5.90558C59.7835 5.82538 59.7596 5.73473 59.7596 5.6425C59.7596 5.55028 59.7835 5.45963 59.829 5.37942C60.1976 4.69609 62.7774 4.45692 64.2789 4.38175C64.3239 4.37803 64.3693 4.38348 64.4121 4.39777C64.455 4.41207 64.4945 4.43492 64.5283 4.46493C64.5621 4.49495 64.5895 4.53151 64.6088 4.57241C64.6281 4.61332 64.639 4.65771 64.6406 4.70292C64.6445 4.79313 64.6131 4.8813 64.5533 4.94886C64.4935 5.01642 64.4098 5.05808 64.3199 5.06509C63.027 5.08186 61.7428 5.27967 60.5047 5.65275C61.2204 6.20422 62.0434 6.5999 62.9207 6.81442C63.0112 6.83073 63.0916 6.88237 63.144 6.95798C63.1965 7.03359 63.2169 7.12697 63.2006 7.21758C63.1843 7.3082 63.1327 7.38863 63.0572 7.44117C62.9817 7.49371 62.8884 7.51406 62.7979 7.49775C62.4141 7.47371 62.0322 7.56918 61.7047 7.77105C61.3772 7.97292 61.1202 8.2713 60.9688 8.62525C60.9361 8.68402 60.8872 8.73206 60.8278 8.76359C60.7685 8.79511 60.7013 8.80877 60.6344 8.80292Z" fill="#231F20"/>
<path d="M61.1121 5.42044H61.0575L58.2183 5.03777C58.1735 5.03194 58.1303 5.01733 58.0911 4.99477C58.052 4.97221 58.0176 4.94214 57.99 4.90629C57.9344 4.83389 57.9097 4.7423 57.9215 4.65169C57.9332 4.56107 57.9805 4.47885 58.0528 4.4231C58.1251 4.36736 58.2166 4.34266 58.3071 4.35444L61.1463 4.7371C61.2368 4.74254 61.3214 4.78375 61.3816 4.85167C61.4417 4.91959 61.4725 5.00866 61.467 5.09927C61.4616 5.18989 61.4205 5.27463 61.3526 5.33486C61.2848 5.39509 61.1958 5.42587 61.1053 5.42044H61.1121Z" fill="#231F20"/>
<path d="M55.5975 135.069C55.5081 135.06 55.4258 135.017 55.3683 134.948C55.3108 134.879 55.2828 134.79 55.2904 134.7C55.3245 134.249 59.2557 89.7504 69.6229 67.3439C69.6627 67.2623 69.7328 67.1995 69.8182 67.1688C69.9037 67.1382 69.9976 67.1422 70.0802 67.1799C70.1209 67.1983 70.1576 67.2246 70.188 67.2574C70.2184 67.2902 70.2419 67.3288 70.2572 67.3708C70.2724 67.4128 70.2791 67.4575 70.2769 67.5022C70.2746 67.5469 70.2634 67.5906 70.244 67.6309C59.9246 89.9281 56.007 134.311 55.9661 134.755C55.9626 134.8 55.9504 134.843 55.9299 134.884C55.9095 134.924 55.8814 134.959 55.8471 134.989C55.8129 135.018 55.7732 135.04 55.7303 135.054C55.6875 135.068 55.6424 135.073 55.5975 135.069Z" fill="#231F20"/>
<path d="M140.289 96.4473L143.278 96.8709L146.138 128.933L142.944 130.969L140.289 96.4473Z" fill="white"/>
<path d="M142.957 131.311C142.906 131.31 142.854 131.298 142.807 131.277C142.755 131.249 142.71 131.209 142.677 131.16C142.644 131.111 142.623 131.055 142.616 130.996L139.961 96.4676C139.958 96.4167 139.966 96.3658 139.985 96.3185C140.004 96.2712 140.033 96.2288 140.07 96.1942C140.108 96.1599 140.152 96.1342 140.201 96.1188C140.249 96.1035 140.3 96.0989 140.35 96.1054L143.34 96.5291C143.416 96.5407 143.486 96.5772 143.539 96.6328C143.592 96.6884 143.625 96.7601 143.633 96.8366L146.493 128.899C146.497 128.961 146.484 129.024 146.457 129.08C146.429 129.136 146.388 129.184 146.336 129.22L143.142 131.27C143.085 131.299 143.021 131.314 142.957 131.311ZM140.678 96.8434L143.258 130.375L145.79 128.755L142.957 97.1714L140.678 96.8434Z" fill="#231F20"/>
<path d="M97.3529 23.5151C95.5989 23.5151 94.541 22.0254 94.0701 20.8433C93.3057 21.6564 91.5312 23.2144 89.3472 22.8933C86.4807 22.5106 84.2011 18.0689 84.1056 17.8776C84.0742 17.8261 84.0576 17.767 84.0576 17.7068C84.0576 17.6465 84.0742 17.5874 84.1056 17.5359C84.139 17.486 84.185 17.4459 84.239 17.4195C84.2929 17.3931 84.3528 17.3814 84.4127 17.3856L103.523 18.9709C103.586 18.978 103.646 19.0012 103.697 19.0383C103.749 19.0754 103.79 19.1252 103.816 19.1828C103.839 19.242 103.846 19.3064 103.835 19.369C103.824 19.4316 103.796 19.4901 103.755 19.5381C103.632 19.6748 100.772 22.9548 97.8989 23.4468C97.719 23.4842 97.5364 23.5071 97.3529 23.5151ZM94.2066 19.8183H94.2748C94.3381 19.8302 94.3964 19.8606 94.4425 19.9056C94.4887 19.9505 94.5205 20.0081 94.5342 20.0711C94.5342 20.1941 95.3805 23.2076 97.817 22.8044C99.8031 22.4559 101.912 20.5563 102.799 19.6269L85.0542 18.1509C85.7367 19.3263 87.5112 21.9844 89.47 22.2509C91.9475 22.5789 93.9472 19.9959 93.9677 19.9686C93.9948 19.9282 94.0301 19.894 94.0712 19.8681C94.1124 19.8422 94.1585 19.8252 94.2066 19.8183Z" fill="#231F20"/>
<path d="M6.60763 147.267C6.54639 147.266 6.48637 147.249 6.43365 147.218C6.38092 147.187 6.33735 147.142 6.30733 147.089C6.27229 147.028 6.25801 146.957 6.26662 146.886C6.27523 146.816 6.30627 146.751 6.3551 146.7C6.55985 146.467 27.2874 123.357 23.9704 114.344C21.8001 108.453 1.30461 101.962 1.09986 101.893C1.03298 101.873 0.973989 101.833 0.931155 101.778C0.88832 101.723 0.863783 101.656 0.860979 101.586C0.857121 101.515 0.875423 101.445 0.913341 101.385C0.95126 101.325 1.00691 101.278 1.07256 101.251C6.62128 98.9823 11.938 96.331 15.9579 94.2742L17.1523 93.666C22.4007 91.001 28.3589 87.9875 30.1607 82.0152C30.764 80.1551 30.8232 78.161 30.3313 76.2683C29.5396 73.4803 27.2055 71.0135 23.9363 69.4965C17.7938 66.6607 9.67206 66.1277 3.72065 65.7382C3.63551 65.7347 3.55491 65.6988 3.49529 65.6379C3.43568 65.5769 3.40155 65.4955 3.39988 65.4102C3.39738 65.3261 3.42594 65.2441 3.48009 65.1798C3.53424 65.1155 3.61017 65.0734 3.69335 65.0617C8.17642 64.3965 12.5093 62.9536 16.4971 60.7977C20.0324 58.8912 22.5645 56.7728 24.2366 54.3197C29.1916 47.09 25.2945 33.5327 18.7766 27.9225C18.7426 27.8933 18.7146 27.8577 18.6942 27.8178C18.6739 27.7778 18.6617 27.7342 18.6582 27.6894C18.6511 27.5991 18.6802 27.5096 18.7391 27.4408C18.7979 27.3719 18.8816 27.3292 18.9719 27.3222C19.0621 27.3151 19.1514 27.3443 19.2202 27.4032C24.4072 31.8517 33.4094 32.494 36.2827 31.141C38.8148 29.9725 40.6371 24.9227 39.1697 18.841C39.149 18.7541 39.1631 18.6625 39.209 18.5858C39.2549 18.5092 39.329 18.4536 39.4154 18.431C39.504 18.4103 39.5973 18.4251 39.6751 18.4724C39.7529 18.5197 39.8091 18.5956 39.8317 18.6838C41.4015 25.2097 39.4018 30.4782 36.5694 31.7902C33.737 33.1022 26.7277 32.6307 21.4725 29.7743C23.8861 32.8769 25.5977 36.4675 26.4889 40.2977C27.8539 45.9283 27.2123 51.1763 24.8031 54.6955C23.0627 57.2375 20.4487 59.431 16.8247 61.3922C13.5665 63.1619 10.0769 64.4661 6.45748 65.2667C12.0745 65.6767 18.8722 66.4283 24.2025 68.902C27.6559 70.501 30.1198 73.1318 30.9661 76.1112C31.4988 78.1356 31.4372 80.2709 30.7886 82.2612C28.9049 88.5137 22.8102 91.5955 17.4389 94.322L16.2445 94.9302C12.4294 96.8845 7.42663 99.3787 2.17138 101.579C6.26638 102.946 22.5508 108.617 24.5915 114.159C26.0725 118.075 23.52 124.853 17.0158 134.283C14.0617 138.504 10.8859 142.564 7.50171 146.447C11.5216 145.763 27.1714 143.078 33.2047 141.499C33.2952 141.477 33.3909 141.491 33.4709 141.539C33.5509 141.587 33.6086 141.665 33.6312 141.756C33.6539 141.846 33.6396 141.942 33.5916 142.022C33.5436 142.102 33.4658 142.16 33.3753 142.183C26.4343 144 6.86016 147.274 6.66223 147.308L6.60763 147.267Z" fill="#D1D3D4"/>
<path d="M171.875 142.278C171.828 142.288 171.779 142.288 171.732 142.278C165.77 139.432 159.225 138.028 152.622 138.178C152.578 138.179 152.534 138.171 152.493 138.155C152.452 138.139 152.415 138.115 152.383 138.085C152.352 138.055 152.326 138.018 152.309 137.978C152.291 137.938 152.281 137.894 152.28 137.85C152.279 137.805 152.286 137.761 152.301 137.718C152.317 137.676 152.34 137.638 152.371 137.605C152.401 137.572 152.438 137.545 152.478 137.526C152.519 137.507 152.563 137.497 152.608 137.495C158.946 137.345 165.239 138.601 171.036 141.171C168.927 137.755 167.207 134.051 167.725 130.238C168.34 125.748 172.141 121.792 177.403 120.152C181.56 118.854 186.078 119.011 190.207 119.305C182.868 115.258 175.956 110.48 169.575 105.043C165.876 101.893 161.023 97.0416 161.501 91.1786C161.931 85.8828 166.545 82.0083 170.517 79.2202C177.914 74.0259 185.833 69.6195 194.145 66.0729C181.98 66.2338 170.151 62.0746 160.757 54.3332C159.201 53.0349 157.659 51.5999 156.969 49.6182C155.488 45.4567 158.471 41.0629 161.747 38.3364C164.115 36.3684 167.951 32.6374 169.8 30.8197C165.344 32.3504 151.564 36.8604 144.159 36.9014C143.404 36.9377 142.651 36.7893 141.966 36.469C141.281 36.1487 140.684 35.6662 140.228 35.0633C137.238 31.1683 139.026 22.1551 139.716 19.2372C135.245 22.2781 128.932 23.2621 128.652 23.3372C128.608 23.344 128.563 23.342 128.519 23.3312C128.476 23.3205 128.434 23.3012 128.398 23.2746C128.362 23.2479 128.332 23.2144 128.308 23.1759C128.285 23.1374 128.27 23.0947 128.263 23.0503C128.251 22.9608 128.275 22.8702 128.328 22.7976C128.382 22.7249 128.461 22.6759 128.55 22.6608C128.618 22.6608 135.73 21.5401 140.064 18.1713C140.122 18.1301 140.191 18.1079 140.262 18.1079C140.333 18.1079 140.402 18.1301 140.46 18.1713C140.519 18.2114 140.565 18.2691 140.591 18.3364C140.617 18.4037 140.621 18.4773 140.603 18.5471C140.569 18.6633 137.457 30.3756 140.774 34.6943C141.163 35.2059 141.671 35.6146 142.254 35.8849C142.836 36.1552 143.476 36.279 144.118 36.2454C152.867 36.1976 170.769 29.7743 170.954 29.7128C171.026 29.6865 171.106 29.6858 171.179 29.7106C171.252 29.7354 171.315 29.7844 171.356 29.8494C171.399 29.9146 171.417 29.9925 171.409 30.0698C171.4 30.1472 171.364 30.219 171.309 30.2731C171.254 30.3346 165.364 36.2249 162.143 38.8968C159.03 41.4798 156.191 45.6003 157.556 49.4338C158.198 51.2241 159.651 52.6113 161.139 53.8481C170.89 61.8961 183.292 66.0052 195.913 65.3691C195.995 65.3592 196.077 65.3814 196.144 65.431C196.21 65.4807 196.254 65.5539 196.268 65.6356C196.286 65.7143 196.276 65.7971 196.238 65.8687C196.201 65.9403 196.138 65.9959 196.063 66.0251C187.16 69.6748 178.691 74.3044 170.81 79.8284C166.961 82.5276 162.497 86.2723 162.088 91.2811C161.631 96.8298 166.34 101.531 169.923 104.565C176.668 110.301 184.005 115.3 191.811 119.475C191.88 119.512 191.935 119.571 191.964 119.644C191.994 119.716 191.998 119.797 191.975 119.872C191.954 119.947 191.908 120.013 191.845 120.057C191.781 120.102 191.704 120.124 191.627 120.118C187.143 119.776 182.072 119.387 177.492 120.801C173.397 122.079 168.947 125.523 168.285 130.334C167.746 134.29 169.8 138.178 172.1 141.786C172.147 141.844 172.172 141.917 172.172 141.991C172.172 142.066 172.147 142.138 172.1 142.196C172.037 142.249 171.957 142.278 171.875 142.278Z" fill="#D1D3D4"/>
<path d="M121.247 139.258C121.17 139.259 121.096 139.233 121.035 139.186C120.974 139.139 120.931 139.073 120.913 138.998L105.604 80.2316C105.593 80.1881 105.59 80.1428 105.597 80.0983C105.603 80.0537 105.618 80.0109 105.641 79.9721C105.663 79.9334 105.694 79.8996 105.73 79.8726C105.766 79.8456 105.806 79.8259 105.85 79.8148C105.893 79.8025 105.939 79.7992 105.984 79.805C106.029 79.8109 106.072 79.8257 106.111 79.8487C106.149 79.8717 106.183 79.9024 106.21 79.9388C106.237 79.9753 106.256 80.0167 106.266 80.0608L121.575 138.827C121.586 138.871 121.589 138.916 121.582 138.961C121.576 139.005 121.561 139.048 121.538 139.087C121.515 139.126 121.485 139.16 121.449 139.187C121.413 139.214 121.373 139.233 121.329 139.244L121.247 139.258Z" fill="white"/>
</svg>
